<svg width="32" height="32" viewBox="0 0 32 32" fill="none" xmlns="http://www.w3.org/2000/svg">
<path d="M15.9997 2.66664C23.3512 2.66664 29.333 8.64776 29.333 16C29.333 19.4596 28.0153 22.7122 25.6624 25.1764L28.6468 26.8346C29.1781 27.1295 29.4424 27.7461 29.29 28.3346C29.1377 28.9225 28.6077 29.3333 27.9997 29.3333H15.9997C8.64811 29.3333 2.66634 23.3522 2.66634 16C2.66634 8.64776 8.64811 2.66664 15.9997 2.66664Z" fill="white"/>
<path d="M15.9998 22.6667C16.7362 22.6667 17.3332 22.0697 17.3332 21.3333C17.3332 20.597 16.7362 20 15.9998 20C15.2635 20 14.6665 20.597 14.6665 21.3333C14.6665 22.0697 15.2635 22.6667 15.9998 22.6667Z" fill="#0098D7"/>
<path d="M16 18.6666C15.263 18.6666 14.6667 18.0696 14.6667 17.3333C14.6667 16.0826 15.6068 15.4192 16.2292 14.9798C16.9753 14.4537 17.3333 14.164 17.3333 13.3333C17.3333 12.5983 16.7357 12 16 12C15.2643 12 14.6667 12.5983 14.6667 13.3333C14.6667 14.0696 14.0703 14.6666 13.3333 14.6666C12.5964 14.6666 12 14.0696 12 13.3333C12 11.1276 13.7943 9.3333 16 9.3333C18.2057 9.3333 20 11.1276 20 13.3333C20 15.5833 18.6016 16.5696 17.7669 17.1588C17.6185 17.2636 17.4245 17.4004 17.3242 17.4909C17.2461 18.153 16.6836 18.6666 16 18.6666Z" fill="#0098D7"/>
</svg>
